# xmcd
#
# Track frame offsets:
#	150
#	9483
#	18765
#	28462
#	38707
#	49111
#	59694
#	70584
#	81583
#	93080
#	104848
#	117442
#	130308
#	142936
#	154721
#	166026
#	177422
#	188071
#	198591
#	209220
#	219576
#	229863
#	240057
#	249517
#
# Disc length: 3441 seconds
#
# Revision: 1
# Processed by: cddbd v1.5PL3 Copyright (c) Steve Scherf et al.
# Submitted via: audiograbber 1.81.02
#
DISCID=530d6f18
DTITLE=Patsy Cline - Come On In
DYEAR=2000
DGENRE=Early Country
TTITLE0=Come On In
TTITLE1=Love, Love, Love Me Honey
TTITLE2=I'm Blue Again
TTITLE3=Too Many Secrets
TTITLE4=Lovesick Blues
TTITLE5=I Don't Wanta
TTITLE6=There He Goes
TTITLE7=Don't Ever Leave Me Again
TTITLE8=Let The Teardrops Fall
TTITLE9=If I Could Only Stay Asleep
TTITLE10=Yes I Understand
TTITLE11=Life's Railway To Heaven
TTITLE12=Just A Closer Walk With Thee
TTITLE13=Today, Tomorrow And Forever
TTITLE14=Crazy Dreams
TTITLE15=The Heart You Break May Be Your Own
TTITLE16=I Can See An Angel
TTITLE17=Gotta Lotta Rhythm In My Soul
TTITLE18=Stop Look And Listen
TTITLE19=I Love You Honey
TTITLE20=Pick Me Up On Your Way Down
TTITLE21=How Can I Face Tomorrow
TTITLE22=I'm Moving Along
TTITLE23=Ain't No Wheels On This Ship
EXTD=
EXTT0=
EXTT1=
EXTT2=
EXTT3=
EXTT4=
EXTT5=
EXTT6=
EXTT7=
EXTT8=
EXTT9=
EXTT10=
EXTT11=
EXTT12=
EXTT13=
EXTT14=
EXTT15=
EXTT16=
EXTT17=
EXTT18=
EXTT19=
EXTT20=
EXTT21=
EXTT22=
EXTT23=
PLAYORDER=
